# xmcd CD database file
# Copyright (C) 1993-1998 Ti Kan
#
# Track frame offsets:
#	182
#	14150
#	31432
#	47037
#	62007
#	76257
#	93570
#	109740
#	123697
#	142845
#	158730
#
# Disc length: 2316 seconds
#
# Revision: 1
# Processed by: cddbd v1.4b41PL1 Copyright (c) Steve Scherf et al.
# Submitted via: DiscPlay 3.4.1
#
DISCID=90090a0b
DTITLE=Diamond Rio - FOUR
DYEAR=1900
DGENRE=
TTITLE0=HOLDIN'
TTITLE1=WALKIN' AWAY
TTITLE2=THAT'S WHAT I GET FOR LOVIN' YOU
TTITLE3=SHE MISSES HIM ON SUNDAY THE MOST
TTITLE4=SHE SURE DID LIKE TO RUN
TTITLE5=IT'S ALL IN YOUR HEAD
TTITLE6=WHO AM I
TTITLE7=LOVE TAKES YOU THERE
TTITLE8=IS THAT ASKING TOO MUCH
TTITLE9=JUST ANOTHER HEART
TTITLE10=BIG
EXTD=
EXTT0=
EXTT1=
EXTT2=
EXTT3=
EXTT4=
EXTT5=
EXTT6=
EXTT7=
EXTT8=
EXTT9=
EXTT10=
PLAYORDER=
